<svg xmlns="http://www.w3.org/2000/svg" width="50" height="50" fill="none" viewBox="0 0 50 50">
  <circle cx="25" cy="25" r="24.5" stroke="#141a26"/>
  <g clip-path="url(#a)">
    <path fill="#141a26" d="M36.522 19.185A3.016 3.016 0 0 0 34.4 17.05c-1.877-.505-9.377-.505-9.377-.505s-7.5 0-9.376.505a3.016 3.016 0 0 0-2.122 2.135C13.023 21.07 13.023 25 13.023 25s0 3.93.502 5.814a3.016 3.016 0 0 0 2.122 2.136c1.876.505 9.376.505 9.376.505s7.5 0 9.377-.505a3.017 3.017 0 0 0 2.122-2.136c.501-1.884.501-5.814.501-5.814s0-3.93-.501-5.815Z"/>
    <path fill="#ffffff" d="M22.568 28.569v-7.137L28.841 25l-6.273 3.569Z"/>
  </g>
  <defs>
    <clipPath id="a">
      <path fill="#ffffff" d="M0 0h24v24H0z" transform="translate(13 13)"/>
    </clipPath>
  </defs>
</svg>
